<svg fill="none" height="569" viewBox="0 0 1305 569" width="1305" xmlns="http://www.w3.org/2000/svg"><path d="m1155.92 326.682c1.03-1.341 2.06-2.682 3.38-3.613 4.67-3.299 10.08-4.086 15.73-3.722 1.33.086 1.44.806 1.18 1.573-.25.768-.66 1.483-1.08 2.2-.08.15-.17.3-.25.45-.09.157-.18.314-.26.472-1.92 3.577-3.68 6.532-6.22 8.991-3.36 3.236-6.71 3.313-10.12.093l-.03-.035-.05-.042c-.08-.069-.15-.138-.22-.217-.9-1.129-1.81-2.26-2.71-3.39l-.78-.968c.5-.572.97-1.182 1.43-1.792z" fill="#fff"/><g clip-rule="evenodd" fill-rule="evenodd"><path d="m964.678 555.635c14.069 6.564 45.142 5.15 68.832.983-1.66-1.87-.55-5.258 1.68-6.562 1.71-.975 3.4-2.282 5.09-3.583 1.47-1.14 2.94-2.275 4.42-3.179l.07-.041c3.37-2.069 6.75-4.139 10.21-6.077 2.39-1.341 3.66-3.456 4.91-5.547.43-.723.86-1.443 1.33-2.126 3.62-5.219 7.1-10.533 10.58-15.847l.05-.077c2.9-4.428 5.81-8.856 8.79-13.228 3.28-4.808 5.28-9.81 6.08-15.673.92-6.728 2.38-13.417 4.54-19.961 2.2-6.644 4.19-13.356 6.17-20.07l.41-1.368c1.32-4.462 2.64-8.922 4.04-13.36.76-2.401 1.73-4.732 2.7-7.065l.01-.019c.73-1.746 1.45-3.491 2.08-5.266.52-1.45 1.3-2.164 2.68-1.855 1.44.325 1.55 1.556 1.65 2.911.24 3.054-.55 5.911-1.33 8.757l-.02.057c-.24.856-.47 1.711-.68 2.57-2.41 9.929-4.99 19.819-7.59 29.7-.49 1.873-1.09 3.72-1.68 5.567v.016c-.53 1.624-1.05 3.248-1.5 4.891-.91 3.288-1.76 6.605-2.39 9.954-.45 2.375-.84 4.759-1.24 7.142l-.05.31c-.74 4.434-1.49 8.861-2.58 13.235-.55 2.196-.76 4.469-.97 6.749l-.02.184c-.17 1.825-.33 3.649-.67 5.437-.33 1.786-.55 3.588-.77 5.391-.34 2.817-.68 5.631-1.45 8.388-.43 1.542-.54 3.175-.65 4.806v.007c-.01.166-.02.332-.04.497-.03.505-.07 1.008-.12 1.507-.07.742-.38 2.357-.69 4.032-.35 1.912-.72 3.901-.79 4.752l-.01.011c-.26 3.398-1.48 10.6-2.1 13.929l-.06.29c-.22 1.394-.66 2.479-1.24 3.294 47 9.959 91.89 10.579 139.61-.199-.61-1.16-.4-2.768 1.07-4.426.14-.178 1.25-1.573 2.33-2.93 1.01-1.276 2-2.518 2.13-2.686.44-.579 1.12-1.427 1.86-2.344 1.23-1.52 2.61-3.229 3.3-4.221.48-.702.81-1.844.62-2.639-.66-2.726-1.38-5.437-2.1-8.149l-.01-.033c-.73-2.738-1.45-5.475-2.12-8.227-.38-1.585-.59-3.212-.79-4.84-.1-.779-.2-1.557-.32-2.33-.03-.256-.07-.513-.11-.769l-.09-.572c-.23-1.549-.46-3.09-.73-4.625-.32-1.84-.66-3.678-.99-5.516l-.01-.043-.01-.041c-.59-3.254-1.19-6.507-1.71-9.773-.36-2.317-.66-4.649-.95-6.979l-.03-.276c-.53-4.131-1.06-8.257-1.99-12.297-.43-1.927-.46-3.86-.48-5.767-.02-1.93-.04-3.836-.49-5.687-.66-2.678-.72-5.337-.78-7.996v-.125c-.02-1.119-.04-2.238-.11-3.359-.2-3.402.1-6.697 1.37-9.942.32-.817.31-1.756.3-2.705v-.082c0-.233-.01-.465-.01-.696 0-.34.01-.677.05-1.005.03-.227.28-.429.53-.631.06-.05.12-.101.18-.152l.03-.027c.04-.034.08-.068.11-.102.03.051.06.102.09.153.03.061.07.122.11.183.15.24.3.48.41.736l.08.192c2.38 5.484 4.73 10.92 5.32 17.036.28 3.031.87 6.033 1.47 9.035l.05.273c.4 2.02.8 4.041 1.11 6.073.31 2.048.56 4.107.81 6.166l.09.739c.31 2.667.63 5.328 1.06 7.97.37 2.23.88 4.436 1.39 6.642l.01.013c.44 1.919.88 3.838 1.23 5.773.38 2.066.66 4.148.94 6.23.3 2.185.6 4.369 1 6.534.39 2.09.89 4.158 1.4 6.226.43 1.786.87 3.565 1.23 5.359.61 3.022 1.08 6.073 1.55 9.122l.09.581v.011l.21 1.372c.16 1.036.28 1.073 1.12.387 1.85-1.519 3.82-2.903 5.8-4.255.22-.146.58-.078.94-.01.16.032.33.063.48.074-.02.12-.02.257-.02.394 0 .294-.01.588-.16.726-1.92 1.79-2.93 4.088-3.94 6.387l-.03.069c-.56 1.303-1.13 2.605-1.86 3.813-.86 1.421-4.37 5.94-7.45 9.913-2.12 2.727-4.03 5.196-4.76 6.228-.16.197-.33.385-.5.565 13.74.158 28.4-.602 45.18-3.561.13-.835.54-1.705 1.34-2.511.19-.24.82-1.211 1.49-2.246.81-1.244 1.67-2.58 1.92-2.856.97-1.078 1.4-2.155 1.07-3.352-.71-2.605-1.14-5.258-1.57-7.916l-.04-.222c-.45-2.762-.91-5.52-1.69-8.236-1.54-5.408-2.95-10.868-4.37-16.326l-.02-.087v-.012c-.39-1.511-.79-3.022-1.18-4.531-.11-.425-.22-.851-.33-1.276-.15-.546-.29-1.093-.43-1.639l-.04-.149-.82-3.12c-1.76-6.756-3.45-13.538-4.58-20.404-1.76-10.731-4.95-21.022-8.25-31.291-1.5-4.68-3.49-9.247-6.42-13.371-1-1.411-1.79-2.978-2.58-4.542l-.05-.091c-.92-1.81-1.84-3.613-3.08-5.162-4.4-5.472-9.17-10.766-15.41-14.205-4.19-2.312-8.71-4.078-13.21-5.758-7.98-2.977-13.9-8.73-19.14-14.919-4.1-4.847-7-10.775-7.75-17.397-.34-3.063-.92-3.679-3.98-4.425-3.01-.736-4.44-4.435-2.39-6.718 1.02-1.131 2.52-2.242 3.96-2.493.55-.095 1.1-.189 1.65-.283l.02-.003c3.76-.645 7.53-1.29 11.15-2.534 4.68-1.606 9.36-3.215 13.95-5.04 6.31-2.506 12.03-6.121 17.74-9.729l.03-.02.02-.015c.47-.292.93-.584 1.39-.875 2.71-1.708 5.29-3.694 7.65-5.855l.11-.096c.27-.249.54-.497.81-.744l1.06-.963.07-.065c3.95-3.586 7.91-7.186 11.41-11.176 7.22-8.244 13.49-17.198 18.72-26.904 5.05-9.348 8.71-19.2 11.83-29.277.93-2.976 1.5-6.061 2.1-9.315.2-1.062.4-2.143.62-3.243.11-.555.22-1.092.33-1.615.16-.752.32-1.475.48-2.18l.03-.148c.26-1.162.51-2.279.72-3.401.37-1.976.68-3.984.75-5.987.06-1.505.14-3.012.22-4.521l.06-1.143v-.018c.29-5.181.58-10.366.1-15.476-.55-5.823-1.24-11.714-2.28-17.548-1.15-6.447-3.06-12.628-4.97-18.754-1.91-6.147-4.99-12.028-8.23-17.636-3.18-5.493-6.88-10.762-10.96-15.624-2.08-2.481-4.6-4.591-7.13-6.702-1.21-1.014-2.42-2.028-3.59-3.084-5.47-4.961-11.82-8.469-18.55-11.376-5.91-2.555-11.97-4.534-18.38-5.468-.36-.053-.73-.107-1.09-.163-.59-.091-1.19-.186-1.78-.28-4.58-.726-9.18-1.455-13.74-.848-1.52.202-3.03.381-4.55.56l-.01.001c-3.92.461-7.84.923-11.75 1.788-9.99 2.215-19.11 6.255-27.92 11.113-5.82 3.205-11.45 6.825-16.28 11.493-1.5 1.446-3.02 2.872-4.53 4.298l-.01.002c-3.76 3.531-7.52 7.062-10.93 10.905-5.41 6.098-10.29 12.7-14.2 19.902l-.82 1.496c-2.85 5.235-5.71 10.488-8.02 15.959-3.15 7.433-5.96 15.031-7.53 23.017-.42 2.091-.92 4.165-1.42 6.239-.62 2.529-1.23 5.057-1.68 7.614-.56 3.205-.71 6.512-.73 9.776-.03 6.749.03 13.504.28 20.248.35 9.402 2.48 18.463 4.97 27.533 2.31 8.415 6.04 16.142 10.2 23.618 2.89 5.186 6.13 10.335 10.44 14.634 1.1 1.104 2.14 2.288 3.17 3.47l.06.073c1.5 1.713 2.99 3.418 4.71 4.873 8.32 7.063 17.42 12.973 27.45 17.404 3.76 1.66 3.73 1.802 3.05 5.561v.013l-.12.629c-.14.799-.2 1.607-.26 2.414v.058c-.15 1.808-.3 3.612-1.36 5.314-.27.431.02 1.184.32 1.971.19.476.37.962.44 1.398.21 1.247.38 2.501.54 3.754l.01.01c.13 1.015.26 2.03.42 3.042.2 1.312.44 2.625.78 3.908.74 2.821-.15 5.449-1.59 7.634-.85 1.279-2.86 2.06-4.7 1.219-2.34-1.068-3.32-3.216-3.63-5.551-.2-1.537-.18-3.106-.15-4.673.01-.55.02-1.1.02-1.648 0-1.403-.34-1.695-1.72-.957-3.44 1.849-6.92 3.61-10.41 5.37l-.01.005-2.78 1.406c-6.27 3.178-12.58 6.248-19.26 8.488-5.44 1.823-10.11 4.845-14.71 8.289-4.36 3.257-7.16 7.546-9.82 11.944l-.61 1.016-.3.509c-.66 1.107-1.32 2.209-2 3.297-5.4 8.655-9.9 17.806-14.3 27.014-3.16 6.597-6.64 13.043-10.18 19.445-5.07 9.183-10.24 18.31-15.42 27.436l-1.3 2.292c-.53.945-1.07 1.89-1.6 2.835-.16.276-.31.553-.47.83-.14.249-.28.499-.42.749l-.02.045c-1.38 2.452-2.75 4.907-4.4 7.147-1.24 1.669-3.06 2.962-4.79 4.191l-.12.082c-3.99 2.829-8.06 5.56-12.15 8.242-3.83 2.51-7.68 5.003-11.52 7.492l-1.46.945-.01.013-.03.019-.47.305c-3.46 2.242-6.926 4.484-10.38 6.738-1.54 1.008-3.07 2.043-4.59 3.079l-.01.005-.068.046c-1.947 1.324-3.895 2.648-5.882 3.911-1.128.715-5.842 3.175-10.372 5.538-4.081 2.129-8.013 4.181-9.039 4.808-.206.105-.41.205-.611.3zm180.992-255.612c-4.08-1.336-8.12-2.787-12.13-4.313-1.72-.654-3.02.356-3.9 1.222-.54.537-.38 2.24.76 3.331 2.85 2.726 6.01 4.886 9.76 6.106 3.07.998 3.69 1.837 3.92 4.948.04.487.07.976.1 1.466v.027l.01.174c.16 2.302.31 4.618.9 6.814l.25.98.1.394.21.788c.11.393.21.787.32 1.18l.21.784c1.76 6.263 4.08 12.238 10.41 15.868 2.85 1.638 5.5 3.038 9.26 2.066 2.68-.694 4.75-2.042 7.07-3.546l.04-.028.14-.09c.21-.142.43-.284.65-.427.1-.096.19-.187.28-.273.14-.136.27-.261.4-.382.4-.379.74-.699.99-1.081 6.12-9.526 10.25-19.993 14.38-30.461l.39-.986c.66-1.66-.22-2.991-2.04-3.067-.23-.01-.46-.022-.69-.033l-.35-.018c-1.77-.092-3.58-.185-5.27.181-4.51.978-9.01 1.893-13.63 1.776-1.43-.036-2.86-.199-4.3-.363-1.12-.129-2.25-.258-3.38-.324-5.07-.3-10.04-1.132-14.86-2.713zm18.14-83.437c1.59-2.782 1.11-4.639-.98-5.591-1.45-.664-2.21.005-3.2.893-3.73 3.374-6.44 7.505-9.15 11.642l-.05.071c-1.33 2.044-2.67 4.087-4.13 6.04-.47.627-.93 1.258-1.41 1.907-.66.905-1.35 1.845-2.12 2.853-1.17 1.786-2.16 3.34-3.09 4.934l-.53.921c-.27.477-.55.954-.83 1.43-2.77 4.775-5.54 9.549-8.24 14.36-.04.07-.08.139-.12.209-.04.065-.07.129-.11.194l-.19.328-.57 1.018c-.95 1.702-1.85 3.437-2.43 5.263-.89 2.86-.25 6.094 2.07 7.794l.06.043c2.43 1.785 5 3.67 8.2 4.371 1.83.399 3.61 1.014 5.39 1.629l.78.269c1.04.357 2.08.703 3.14.996.7.194 1.39.414 2.09.635l.07.023.01.001c2.58.821 5.17 1.643 8 1.192 2.59-.411 3.88-1.475 3.98-3.603.12-2.655-.92-4.871-2.71-4.795-3.06.129-5.81-.803-8.58-1.738l-.01-.003-.97-.328c-.41-.136-.82-.268-1.23-.395-.82-.254-1.64-.501-2.46-.747l-.1-.031c-2.39-.716-4.78-1.434-7.1-2.325-2.88-1.106-2.9-1.385-1.5-4.039.46-.871.91-1.747 1.37-2.623l.01-.028c1.53-2.95 3.06-5.903 4.84-8.691 2.58-4.022 5.24-7.983 7.91-11.945l.01-.022c2.22-3.297 4.43-6.595 6.6-9.928 2.58-3.966 4.94-8.074 7.28-12.184z" fill="#fff"/><path d="m1223.43 114.966.01.003.01.001c.64.141 1.29.281 1.93.419.21.043.41.086.61.128l.37.077c7.3 1.516 14.19 4.42 20.74 7.924 5.64 3.023 11.03 6.536 15.82 10.886.87.796 1.8 1.54 2.73 2.283 1.32 1.062 2.64 2.123 3.81 3.336 9.32 9.653 17.07 20.451 22.5 32.734 3.22 7.28 5.75 14.863 7.44 22.682 1.4 6.463 2.41 12.958 2.98 19.574.08 1.007.18 2.014.29 3.021.28 2.812.57 5.623.51 8.443-.08 3.878-.44 7.742-.8 11.603-.17 1.817-.34 3.633-.48 5.451-.61 7.898-2.27 15.561-4.14 23.165-1.15 4.701-2.8 9.283-4.45 13.861l-.01.003c-.51 1.43-1.03 2.86-1.53 4.293-2.98 8.553-7.56 16.326-12.13 24.069-.36.618-.72 1.235-1.09 1.852-.17.297-.34.594-.52.892-2.6 4.434-6.05 8.411-9.45 12.325l-.45.516c-.73.838-1.45 1.68-2.18 2.523-4.18 4.863-8.39 9.747-13.15 13.979-8.12 7.213-17.06 13.419-26.92 18.201-7.07 3.436-14.49 5.866-22.07 7.869-2.21.585-3.02 1.649-2.36 3.834 2.81 9.386 7.74 17.112 16.49 22.211 5.12 2.981 10.37 5.458 15.96 7.377 2.44.838 4.94 2.087 6.84 3.79 5.11 4.579 10.08 9.35 14.75 14.366 1.16 1.24 1.95 2.814 2.74 4.396.51 1.03 1.03 2.061 1.65 3.006 4.18 6.371 6.98 13.409 9.72 20.43 1.51 3.878 2.5 7.977 3.47 12.054.16.65.32 1.301.47 1.95.53 2.153 1.07 4.303 1.62 6.454 1.72 6.823 3.45 13.646 4.52 20.567.63 4.041 1.47 8.028 2.3 12.013.56 2.673 1.12 5.336 1.62 8.014.83 4.494 1.93 8.938 3.02 13.383.77 3.116 1.54 6.232 2.22 9.366.41 1.895.57 3.842.73 5.791.09 1.041.17 2.083.3 3.117.09.784.22 1.567.35 2.35.25 1.487.49 2.973.49 4.461 0 .956-.24 2.074-.7 2.991-2.1 2.345-3.28 5.017-5.67 7.697-4.69 5.841-10.63 0-6.53-4.152.43-.529 2.95-4.596 3.41-5.102.97-1.078 1.4-2.155 1.07-3.352-.71-2.605-1.14-5.258-1.57-7.916-.47-2.836-.93-5.669-1.73-8.458-1.55-5.437-2.97-10.926-4.39-16.413v-.012c-.39-1.511-.79-3.022-1.18-4.531-.25-.971-.51-1.943-.76-2.915l-.04-.149-.82-3.12c-1.76-6.756-3.45-13.538-4.58-20.404-1.76-10.731-4.95-21.022-8.25-31.291-1.5-4.68-3.49-9.247-6.42-13.371-1-1.411-1.79-2.978-2.58-4.542-.94-1.841-1.87-3.678-3.13-5.253-4.4-5.472-9.17-10.766-15.41-14.205-4.19-2.312-8.71-4.078-13.21-5.758-7.98-2.977-13.9-8.73-19.14-14.919-4.1-4.847-7-10.775-7.75-17.397-.34-3.063-.92-3.679-3.98-4.425-3.01-.736-4.44-4.435-2.39-6.718 1.02-1.131 2.52-2.242 3.96-2.493.55-.095 1.1-.189 1.65-.283 3.77-.646 7.54-1.291 11.17-2.537 4.68-1.606 9.36-3.215 13.95-5.04 6.32-2.51 12.05-6.134 17.77-9.749l.02-.015c.47-.292.93-.584 1.39-.875 2.71-1.708 5.29-3.694 7.65-5.855.31-.281.62-.561.92-.84l1.06-.963c3.97-3.607 7.96-7.227 11.48-11.241 7.22-8.244 13.49-17.198 18.72-26.904 5.05-9.348 8.71-19.2 11.83-29.277.93-2.976 1.5-6.061 2.1-9.315.2-1.062.4-2.143.62-3.243.26-1.353.54-2.599.81-3.795.27-1.216.53-2.379.75-3.549.37-1.976.68-3.984.75-5.987.07-1.885.18-3.774.28-5.664v-.018c.29-5.181.58-10.366.1-15.476-.55-5.823-1.24-11.714-2.28-17.548-1.15-6.447-3.06-12.628-4.97-18.754-1.91-6.147-4.99-12.028-8.23-17.636-3.18-5.493-6.88-10.762-10.96-15.624-2.08-2.481-4.6-4.591-7.13-6.702-1.21-1.014-2.42-2.028-3.59-3.084-5.47-4.961-11.82-8.469-18.55-11.376-5.91-2.555-11.97-4.534-18.38-5.468-.96-.139-1.92-.291-2.87-.443-4.58-.726-9.18-1.455-13.74-.848-1.52.202-3.03.381-4.55.56-3.92.461-7.85.923-11.76 1.789-9.99 2.215-19.11 6.255-27.92 11.113-5.82 3.205-11.45 6.825-16.28 11.493-1.5 1.446-3.02 2.872-4.53 4.298l-.01.002c-3.76 3.531-7.52 7.062-10.93 10.905-5.41 6.098-10.29 12.7-14.2 19.902-.16.292-.32.583-.48.875l-.34.621c-2.85 5.235-5.71 10.488-8.02 15.959-3.15 7.433-5.96 15.031-7.53 23.017-.42 2.091-.92 4.165-1.42 6.239-.62 2.529-1.23 5.057-1.68 7.614-.56 3.205-.71 6.512-.73 9.776-.03 6.749.03 13.504.28 20.248.35 9.402 2.48 18.463 4.97 27.533 2.31 8.415 6.04 16.142 10.2 23.618 2.89 5.186 6.13 10.335 10.44 14.634 1.1 1.104 2.14 2.288 3.17 3.47 1.52 1.737 3.03 3.47 4.77 4.946 8.32 7.063 17.42 12.973 27.45 17.404 3.76 1.662 3.73 1.802 3.05 5.574l-.12.629c-.14.799-.2 1.607-.26 2.414-.15 1.827-.29 3.652-1.36 5.372-.27.431.02 1.184.32 1.971.19.476.37.962.44 1.398.21 1.247.38 2.501.54 3.754l.01.01c.13 1.015.26 2.03.42 3.042.2 1.312.44 2.625.78 3.908.74 2.821-.15 5.449-1.59 7.634-.85 1.279-2.86 2.06-4.7 1.219-2.34-1.068-3.32-3.216-3.63-5.551-.2-1.537-.18-3.106-.15-4.673.01-.55.02-1.1.02-1.648 0-1.403-.34-1.695-1.72-.957-3.44 1.849-6.92 3.61-10.41 5.37l-.01.005-2.78 1.406c-6.27 3.178-12.58 6.248-19.26 8.488-5.44 1.823-10.11 4.845-14.71 8.289-4.36 3.257-7.16 7.545-9.82 11.943l-.61 1.017c-.1.17-.2.339-.3.509-.66 1.107-1.32 2.209-2 3.297-5.4 8.655-9.9 17.806-14.3 27.014-3.16 6.597-6.64 13.043-10.18 19.445-5.07 9.183-10.24 18.31-15.42 27.436l-1.3 2.292c-.53.945-1.07 1.89-1.6 2.835-.3.525-.59 1.052-.89 1.579-1.38 2.467-2.76 4.938-4.42 7.192-1.24 1.669-3.06 2.962-4.79 4.191l-.12.082c-3.99 2.829-8.06 5.56-12.15 8.242-4.31 2.828-8.65 5.633-12.98 8.437l-.01.013-.03.019c-3.62 2.344-7.24 4.687-10.85 7.043-1.54 1.008-3.07 2.043-4.59 3.079l-.01.005c-1.97 1.339-3.94 2.679-5.95 3.957-2.145 1.36-17.247 9.022-19.411 10.346-11.934 6.031-14.448-2.638-7.342-6.337 2.499-1.634 5.049-3.175 7.601-4.718 1.201-.725 2.402-1.451 3.598-2.188 3.784-2.326 7.454-4.826 11.124-7.326 2.12-1.442 4.24-2.883 6.38-4.291 4.6-3.03 9.22-6.027 13.84-9.024 1.01-.653 2.02-1.306 3.02-1.96l1.22-.786c.6-.391 1.2-.783 1.8-1.175 1.98-1.282 3.96-2.546 5.95-3.81 4.69-2.986 9.38-5.972 13.89-9.201 3.66-2.618 5.87-6.556 8.05-10.465.27-.478.54-.955.81-1.429 5.18-9.122 9.74-18.551 14.3-27.98 1.52-3.136 3.04-6.273 4.58-9.398 4.33-8.778 8.81-17.482 13.39-26.134 1.82-3.448 3.84-6.794 5.86-10.137.57-.933 1.13-1.866 1.69-2.801.19-.327.39-.653.58-.979 1.7-2.847 3.41-5.697 5.27-8.437 4.73-6.968 11.01-12.264 18.39-16.232 2.94-1.584 6.06-2.793 9.17-4.001 1.5-.578 2.99-1.157 4.46-1.776 5.75-2.42 11.35-5.204 16.95-7.989 2.21-1.098 4.42-2.196 6.64-3.271.41-.201.8-.45 1.19-.7.27-.175.55-.351.83-.51 4.47-2.506 5.96-5.675 4.47-10.261-.32-.993-1.52-1.855-2.52-2.447-1.76-1.047-3.57-2.023-5.37-2.999l-.76-.409c-3.28-1.771-6.53-3.573-9.44-5.823-5.28-4.091-9.94-9.049-14.51-13.967-3.37-3.623-6.39-7.627-9.14-11.747-5.23-7.842-9.16-16.374-12.2-25.29-2-5.869-3.45-11.878-4.58-17.997-.91-4.95-1.76-9.848-1.86-14.901-.04-1.958-.24-3.913-.45-5.868-.2-1.863-.39-3.723-.44-5.585-.05-1.719.17-3.445.39-5.171.1-.835.21-1.671.28-2.506.08-.901.09-1.797.1-2.694.01-1.651.03-3.308.5-5.022.66-2.382.9-4.873 1.14-7.369.15-1.529.3-3.06.55-4.569 1.36-8.431 3.54-16.668 6.4-24.716 1.52-4.285 3.05-8.582 4.92-12.721 1.77-3.924 3.77-7.778 6.04-11.431.66-1.054 1.31-2.113 1.96-3.173 3.25-5.283 6.51-10.585 10.39-15.366 4.79-5.9 10.35-11.205 15.87-16.47l.48-.46c3.8-3.629 7.97-6.927 12.22-10.024 5.61-4.088 11.48-7.729 17.97-10.469 4.45-1.878 8.9-3.652 13.49-5.141 5.19-1.682 10.47-2.731 15.83-3.719 3.92-.722 7.83-.75 11.72-.777 2.03-.014 4.06-.029 6.09-.141 5.23-.29 10.31.817 15.36 1.919zm-114.08 300.748c1.44.325 1.55 1.556 1.65 2.911.24 3.074-.56 5.949-1.35 8.814-.24.856-.47 1.711-.68 2.57-2.41 9.929-4.99 19.819-7.59 29.7-.49 1.873-1.09 3.72-1.68 5.567v.016c-.53 1.624-1.05 3.248-1.5 4.891-.91 3.288-1.76 6.605-2.39 9.954-.45 2.375-.84 4.759-1.24 7.142-.76 4.538-1.51 9.069-2.63 13.545-.56 2.255-.77 4.592-.99 6.933-.17 1.825-.33 3.649-.67 5.437-.33 1.786-.55 3.588-.77 5.391-.34 2.817-.68 5.631-1.45 8.388-.43 1.544-.54 3.18-.65 4.813-.05.671-.09 1.341-.16 2.004-.16 1.59-1.36 7.187-1.48 8.783l-.01.011c-.26 3.398-1.48 10.601-2.11 13.93l-.05.29c-1.34 8.484-10.86 5.507-9.91 0l.19-1.112c.18-1.101 1.31-6.007 1.47-7.109.09-.584.17-1.17.25-1.755.06-.441.12-.881.19-1.322l.15-1.141c.54-3.886 2.16-11.774 2.84-15.636.36-2.019.89-4.007 1.42-5.995.32-1.184.63-2.364.91-3.552.08-.337 0-.712-.08-1.087-.04-.174-.07-.347-.09-.517-.16.109-.34.206-.52.304-.39.21-.78.419-.92.739-3.36 7.581-8.07 14.357-12.76 21.1l-.8 1.158c-2.29 3.294-5.43 6.05-9.17 8.08l-9.14 5.548c-16.87 8.758-16.84-1.885-12.44-4.451 3.22-1.828 6.35-4.827 9.51-6.762 3.4-2.083 6.8-4.167 10.28-6.118 2.39-1.341 3.66-3.456 4.91-5.547.43-.723.86-1.443 1.33-2.126 3.62-5.219 7.1-10.533 10.58-15.847 2.92-4.453 5.84-8.907 8.84-13.305 3.28-4.808 5.28-9.81 6.08-15.673.92-6.728 2.38-13.417 4.54-19.961 2.2-6.644 4.19-13.356 6.17-20.07 1.46-4.918 2.91-9.836 4.45-14.728.76-2.401 1.73-4.732 2.7-7.065.73-1.752 1.46-3.503 2.09-5.285.52-1.45 1.3-2.164 2.68-1.855zm112.67 22.193c.06.113.13.225.2.336.15.24.3.48.41.736l.08.192c2.38 5.484 4.73 10.92 5.32 17.036.29 3.123.91 6.215 1.52 9.308.4 2.02.8 4.041 1.11 6.073.35 2.293.62 4.599.9 6.905.31 2.667.63 5.328 1.06 7.97.37 2.23.88 4.436 1.39 6.642l.01.013c.44 1.919.88 3.838 1.23 5.773.38 2.066.66 4.148.94 6.23.3 2.185.6 4.369 1 6.534.39 2.09.89 4.158 1.4 6.226.43 1.786.87 3.565 1.23 5.359.65 3.214 1.14 6.46 1.64 9.703v.011c.07.458.14.915.21 1.372.16 1.036.28 1.073 1.12.387 1.85-1.519 3.82-2.903 5.8-4.255.22-.146.58-.078.94-.01.16.032.33.063.48.074-.02.12-.02.257-.02.394 0 .294-.01.588-.16.726-1.94 1.808-2.95 4.134-3.97 6.456-.56 1.303-1.13 2.605-1.86 3.813-1.45 2.396-10.43 13.604-12.21 16.141-5.95 7.029-13.23 2.452-8.75-2.579.27-.346 4.19-5.27 4.46-5.616 1.18-1.541 4.05-4.975 5.16-6.565.48-.702.81-1.844.62-2.639-.66-2.726-1.38-5.437-2.1-8.149-.73-2.749-1.46-5.497-2.13-8.26-.38-1.585-.59-3.212-.79-4.84-.1-.779-.2-1.557-.32-2.33-.03-.256-.07-.513-.11-.769l-.09-.572c-.23-1.549-.46-3.09-.73-4.625-.32-1.84-.66-3.678-.99-5.516l-.01-.043c-.6-3.268-1.2-6.534-1.72-9.814-.36-2.317-.66-4.649-.95-6.979-.54-4.223-1.07-8.443-2.02-12.573-.43-1.927-.46-3.86-.48-5.767-.02-1.93-.04-3.836-.49-5.687-.67-2.72-.72-5.42-.78-8.121-.02-1.119-.04-2.238-.11-3.359-.2-3.402.1-6.697 1.37-9.942.33-.841.31-1.81.3-2.787-.01-.575-.02-1.149.04-1.701.03-.227.28-.429.53-.631.07-.059.14-.119.21-.179.04-.034.08-.068.11-.102zm-88.48-142.197c4.01 1.526 8.05 2.977 12.13 4.313 4.82 1.581 9.79 2.413 14.86 2.713 1.13.066 2.26.195 3.38.324 1.44.164 2.87.327 4.3.363 4.62.117 9.12-.798 13.63-1.776 1.69-.366 3.5-.273 5.27-.181.35.018.7.036 1.04.051 1.82.076 2.7 1.407 2.04 3.067l-.39.986c-4.13 10.468-8.26 20.935-14.38 30.461-.25.382-.59.702-.99 1.081-.13.121-.26.246-.4.382-.09.086-.18.177-.28.273-.27.174-.53.346-.79.517-2.33 1.516-4.41 2.876-7.11 3.574-3.76.972-6.41-.428-9.26-2.066-6.33-3.63-8.65-9.605-10.41-15.868l-.21-.784c-.11-.393-.21-.787-.32-1.18l-.21-.788c-.03-.132-.07-.263-.1-.394l-.25-.98c-.6-2.251-.75-4.629-.91-6.988v-.027c-.03-.49-.06-.979-.1-1.466-.23-3.111-.85-3.95-3.92-4.948-3.75-1.22-6.91-3.38-9.76-6.106-1.14-1.091-1.3-2.794-.76-3.331.88-.866 2.18-1.876 3.9-1.222zm25.76 27.359c-1.32.931-2.35 2.272-3.38 3.613-.46.61-.93 1.22-1.43 1.792l.78.968c.9 1.13 1.81 2.261 2.71 3.39.07.079.14.148.22.217l.05.042c.01.012.02.023.03.035 3.41 3.22 6.76 3.143 10.12-.093 2.54-2.459 4.3-5.414 6.22-8.991.16-.31.34-.616.51-.922.42-.717.83-1.432 1.08-2.2.26-.767.15-1.487-1.18-1.573-5.65-.364-11.06.423-15.73 3.722zm3.53-112.074c2.09.952 2.57 2.809.98 5.591-2.34 4.11-4.7 8.218-7.28 12.184-2.17 3.333-4.38 6.631-6.6 9.928-2.67 3.969-5.34 7.938-7.92 11.967-1.79 2.797-3.32 5.759-4.85 8.719-.46.876-.91 1.752-1.37 2.623-1.4 2.654-1.38 2.933 1.5 4.039 2.35.904 4.78 1.63 7.2 2.356.82.246 1.64.493 2.46.747.41.127.82.259 1.23.395l.97.328c2.77.936 5.53 1.87 8.59 1.741 1.79-.076 2.83 2.14 2.71 4.795-.1 2.128-1.39 3.192-3.98 3.603-2.83.451-5.42-.371-8-1.192l-.01-.001c-.72-.228-1.44-.457-2.16-.658-1.06-.293-2.1-.639-3.14-.996l-.78-.269c-1.78-.615-3.56-1.23-5.39-1.629-3.2-.701-5.77-2.586-8.2-4.371l-.06-.043c-2.32-1.7-2.96-4.934-2.07-7.794.58-1.826 1.48-3.561 2.43-5.263l.57-1.018.19-.328c.08-.135.15-.269.23-.403 2.7-4.811 5.47-9.585 8.24-14.36.46-.783.91-1.567 1.36-2.351.93-1.594 1.92-3.148 3.09-4.934.77-1.008 1.46-1.948 2.12-2.853.48-.649.94-1.28 1.41-1.907 1.46-1.953 2.8-3.996 4.13-6.04 2.73-4.161 5.45-8.32 9.2-11.713.99-.888 1.75-1.557 3.2-.893z" fill="#1e64e6"/><path d="m289.884 543.799c14.99 7.251 30.88 10.185 47.684 8.866-.211-1.004-.172-2.029.169-2.861 1.203-2.944 2.916-5.15 4.517-7.21.571-.736 1.127-1.452 1.641-2.178l.043-.068c3.814-6.203 7.623-12.399 11.588-18.494 4.058-6.238 8.432-12.28 12.841-18.279 4.139-5.63 8.436-11.149 12.802-16.606 1.874-2.342 3.847-4.603 5.82-6.865l.025-.029c1.196-1.37 2.39-2.738 3.562-4.124 1.423-1.683 2.825-3.387 4.226-5.091l.086-.104c2.896-3.522 5.789-7.04 8.871-10.384 3.164-3.434 6.79-6.472 10.4-9.455 2.965-2.449 6.095-4.704 9.22-6.955l1.405-1.013c7.796-5.633 15.623-11.224 23.46-16.801.116-.082.241-.151.373-.21.267-.121.561-.205.855-.288h.003c.203-.058.406-.116.6-.187.024.072.057.151.092.233l.1.224c.049.114.094.223.119.313.027.095.031.169-.004.207-2.749 2.974-5.132 6.247-7.514 9.52l-1.05 1.44c-2.806 3.835-5.686 7.61-9.234 10.839-1.117 1.017-2.228 2.043-3.338 3.068l-.201.185-.01.01c-2.523 2.331-5.045 4.661-7.646 6.902-2.417 2.083-5.111 6.327-5.561 9.391-.342 2.324-.741 4.64-1.14 6.956-.405 2.356-.81 4.712-1.156 7.077-.226 1.54-.344 3.093-.464 4.649l-.002.025-.007.092c-.087 1.123-.173 2.247-.302 3.364-.296 2.593-.658 5.179-1.02 7.765l-.2 1.438c-.134.965-.279 1.928-.423 2.892l-.047.31c-.21 1.39-.419 2.776-.601 4.165-.534 4.079-1.05 8.16-1.523 12.246-.141 1.219-.371 3.073-.627 5.129-.492 3.964-1.077 8.679-1.296 11.035-.445 4.784-.854 9.57-1.263 14.357-.363 4.219-.515 6.485-.903 11.579-.009.117-.022.232-.041.344 71.093 11.633 113.074 7.421 154.967-1.712-.263-.69-.424-1.485-.448-2.386-.047-.532-.133-1.967-.216-3.378-.08-1.337-.158-2.652-.201-3.156l-.005-.057c-.149-1.732-.276-5.599-.379-8.727-.051-1.514-.095-2.855-.133-3.697-.044-.966-.088-1.93-.137-2.894-.06-1.158-.128-2.315-.197-3.474-.17-2.877-.34-5.755-.368-8.633-.059-5.945-.024-11.897.175-17.838.201-5.98.475-11.967 1.035-17.921.701-7.461 1.547-14.919 2.667-22.327.912-6.03 2.061-12.055 3.634-17.94.613-2.291-.04-2.569-1.7-3.277l-.147-.062c-5.804-2.482-11.459-5.3-16.189-9.612-2.649-2.415-4.251-5.492-5.763-8.63l-.541-1.128c-.239-.498-.478-.997-.722-1.493-2.625-5.338-5.276-10.667-8.067-15.92-2.923-5.501-5.989-10.928-9.082-16.335-.5-.874-1.363-1.65-2.235-2.182-1.748-1.067-3.52-2.095-5.293-3.123l-.044-.025c-2.613-1.517-5.226-3.033-7.759-4.674-5.725-3.708-10.814-8.226-14.152-14.242-1.898-3.421-2.432-7.519-.388-11.02 1.887-3.23 5.018-5.136 9.095-5.271 2.97-.099 5.59.86 8.244 1.832l.003.001.462.17c.841.307 1.681.616 2.52.927 1.701.63 3.4 1.267 5.099 1.904 5.289 1.984 10.577 3.967 15.936 5.739 8.828 2.918 17.752 5.564 26.71 8.059 6.309 1.757 12.715 3.181 19.113 4.603l1.078.239c1.026.228 2.392-.06 3.32-.595 3.032-1.751 5.974-3.668 8.878-5.629 1.687-1.139 3.391-2.259 5.095-3.379l.003-.002c4.64-3.048 9.282-6.097 13.592-9.559 5.257-4.221 10.108-9.055 14.6-14.098 7.062-7.929 13.021-16.711 18.156-26.03 4.152-7.535 7.289-15.486 9.843-23.685 1.951-6.26 3.683-12.567 4.39-19.111.153-1.42.325-2.838.498-4.256.393-3.225.786-6.451.948-9.688l.036-.704.001-.019c.277-5.487.556-11.019.11-16.471-.968-11.855-3.299-23.464-7.567-34.648-3.213-8.42-7.166-16.42-11.964-24.058-5.295-8.429-11.546-16.032-18.813-22.781-6.348-5.896-13.26-11.067-20.893-15.233-6.915-3.774-14.047-7.055-21.685-9.031-4.867-1.259-9.801-2.353-14.769-3.1-4.514-.679-9.109-.936-13.678-1.104-4.113-.151-8.281-.281-12.351.198-10.234 1.203-20.198 3.501-29.827 7.402-8.262 3.348-16.081 7.42-23.443 12.371-8.863 5.962-16.658 13.211-23.655 21.229-6.701 7.678-12.366 16.121-17.117 25.185-4.423 8.441-7.978 17.223-10.457 26.384-1.659 6.135-2.788 12.441-3.736 18.733-.721 4.789-.963 9.673-1.092 14.524-.14 5.245-.24 10.531.244 15.743.914 9.845 2.706 19.574 6.104 28.896 2.167 5.942 4.537 11.837 7.25 17.547 3.128 6.584 7.17 12.668 11.658 18.421 2.015 2.584 4.141 5.1 6.404 7.467 2.87 3 5.866 5.89 8.925 8.699 5.43 4.987 11.522 9.075 17.863 12.802.217.128.435.252.653.376l.534.305c1.584.914 3.078 1.897 3.853 3.863.722 1.834.175 3.319-.64 4.707-1.405 2.391-2.888 4.735-4.372 7.08-.824 1.301-1.646 2.6-2.454 3.907-.143.233-.291.464-.44.697l-.088.137c-.681 1.065-1.367 2.137-1.783 3.299-.332.927-.48 1.917-.63 2.909-.099.663-.199 1.326-.353 1.973-.045.187-.089.393-.134.605-.209.989-.452 2.136-1.005 2.355-1.351.537-3.137.395-4.07-1.094-1.213-1.937-2.239-4-3.227-6.065-.237-.495-.237-1.358.046-1.803 1.113-1.749.243-1.859-.791-1.824l-.201.009-.102.004-.144.007c-.058.002-.115.005-.172.006-2.114.069-4.227.149-6.341.228l-.018.001c-4.882.184-9.764.368-14.648.422-1.078.012-2.158-.238-3.238-.488-1.019-.237-2.04-.473-3.062-.49-2.099-.034-4.224.369-6.31.765l-.285.054c-.729.138-1.466.262-2.21.387-2.432.408-4.878.819-7.096 1.751-4.027 1.692-7.847 3.947-11.588 6.236-6.469 3.957-12.023 9.027-17.188 14.572-3.339 3.583-6.728 7.12-10.118 10.658l-.074.079c-3.4 3.546-6.799 7.094-10.147 10.689-4.491 4.824-8.897 9.739-13.117 14.8-2.38 2.854-4.649 5.802-6.919 8.752-1.671 2.17-3.342 4.341-5.058 6.475-1.607 1.998-3.281 3.943-4.958 5.889-1.247 1.448-2.494 2.896-3.713 4.366-2.088 2.52-4.153 5.058-6.218 7.597l-.029.035c-1.552 1.909-3.105 3.818-4.667 5.718-1.1 1.339-1.217 1.478-2.062 2.489l-.455.544c-1.971 2.357-3.942 4.714-5.866 7.109-4.779 5.946-8.073 10.063-12.797 16.057l-.886 1.124c-1.105 1.402-1.923 2.414-2.691 3.365-1.074 1.327-2.049 2.532-3.568 4.51-.968 1.26-1.943 2.516-2.919 3.772-.492.633-1.229 1.584-2.21 2.853-.992 1.295-1.745 2.263-2.367 3.062-.989 1.272-1.645 2.115-2.402 3.171-.753 1.051-1.532 1.997-2.304 2.933-1.109 1.345-2.2 2.67-3.173 4.258-.737 1.121-1.458 1.983-2.15 2.625zm256.855-202.75c-2.596-4.344-5.367-8.524-10.416-10.88-5.478-2.215-10.929-3.626-16.646-2.642-1.706.293-3.441 1.457-4.74 2.673-.758.709-1.215 2.53-.838 3.456.459 1.123 1.823 2.353 2.999 2.613 1.826.405 3.696.6 5.567.795 1.285.135 2.571.269 3.844.471l.672.109c3.358.556 6.675 1.343 8.941 4.26 3.749 4.829 7.476 9.678 11.118 14.587 2.158 2.908 5.063 5.227 8.339 5.866 3.347.653 6.814.687 10.28.721h.017c1.384.013 2.768.027 4.144.08.146.005.298-.147.451-.3.071-.071.142-.142.212-.197-.067-.079-.13-.166-.192-.254-.137-.192-.274-.384-.461-.48-.352-.183-.722-.335-1.092-.486l-.011-.005c-.413-.169-.825-.338-1.215-.549-1.42-.771-2.834-1.552-4.244-2.342-.942-.527-1.881-1.058-2.819-1.593-.302-.172-.616-.337-.935-.497-.246-.124-.495-.245-.744-.367l-.002-.001c-1.382-.673-2.769-1.349-3.686-2.423-2.577-3.017-4.802-6.379-6.86-9.787-.336-.557-.668-1.116-.999-1.676l-.227-.384zm49.857-62.984c-.081-2.656-.799-3.242-3.299-3.26-.101.167-.207.329-.314.486-.052.077-.104.152-.156.227-.387.562-.747 1.085-.828 1.648-.26 1.786-.418 3.586-.576 5.387-.068.773-.136 1.546-.212 2.318-.154 1.57-.327 3.139-.5 4.708-.378 3.428-.755 6.856-.94 10.294-.235 4.372-.332 8.75-.429 13.131-.054 2.431-.108 4.861-.185 7.291-.116 3.621-.26 7.242-.405 10.862v.011c-.071 1.772-.142 3.543-.209 5.314-.082 2.156-1.035 2.942-3.139 2.305-4.574-1.385-8.744-3.645-12.606-6.418-1.792-1.286-3.532-2.642-5.274-3.999l-.041-.033c-1.616-1.259-3.232-2.519-4.888-3.723-2.59-1.883-5.587-.795-6.064 2.3-.164 1.062.534 2.58 1.337 3.402 1.765 1.805 3.734 3.469 5.823 4.89.923.626 1.837 1.265 2.753 1.905l.96.671c6.037 4.21 12.148 8.256 20.049 8.703 3.6.203 6.474-1.327 7.075-4.917l.04-.236c.464-2.774.931-5.565 1.088-8.365.243-4.337.302-8.691.263-13.037-.074-8.041-.024-16.044.82-24.083.462-4.403.252-8.883.041-13.355-.069-1.477-.139-2.954-.184-4.427zm-80.008 43.71c-.387-.298-.774-.597-1.156-.59-3.857.071-7.446 1.221-10.789 3.104-4.891 2.754-4.431 12.187-.507 15.723 2.143 1.931 4.242 1.526 4.762-.984-1.422-2.537-1.442-5.121-1.377-7.717.094-3.731 4.393-8.254 7.996-8.506.376-.027.74-.213 1.105-.4.169-.086.338-.172.507-.243-.179-.108-.358-.246-.538-.385z" fill="#fff"/></g><path d="m608.097 560.567c18.488 4.535 35.186 2.258 53.529-5.644-.308-.455-.603-.972-.878-1.555-.584-1.672-1.422-3.721-2.253-5.754-.766-1.876-1.528-3.739-2.079-5.277-1.08-3.016-2.189-6.021-3.299-9.027l-.061-.165c-1.816-4.916-4.68-12.791-6.366-17.741-2.854-8.376-5.532-16.816-8.077-25.292-1.423-4.743-2.736-9.52-4.048-14.299l-.023-.083c-.877-3.195-1.754-6.39-2.665-9.575-2.252-7.88-4.417-15.763-4.168-24.077.011-.373-.167-.751-.346-1.129-.083-.176-.167-.352-.231-.527-.074.091-.15.182-.228.271l-.124.144c-.264.303-.527.606-.73.946-.212.357-.394.742-.575 1.126l-.006.012c-.333.702-.663 1.398-1.178 1.917-.623.629-2.047 1.277-2.611.975-1.044-.56-2.373-1.442-1.974-3.102.096-.397.239-.783.381-1.169l.011-.029c.151-.404.301-.807.399-1.223.244-1.036.491-2.071.739-3.107l.037-.156.003-.012.008-.035c.842-3.52 1.684-7.041 2.387-10.59.807-4.064 1.596-8.164 1.905-12.285.229-3.057.111-6.144-.007-9.226-.014-.388-.029-.775-.043-1.163-.019-.514-.036-1.027-.051-1.541-.036-1.249-.07-2.499-.104-3.748l-.003-.121c-.16-5.855-.32-11.71-.651-17.555-.147-2.606-.481-5.201-.83-7.907l-.004-.027c-.113-.876-.227-1.763-.337-2.666-.08-.655-.158-1.319-.231-1.993l-.092-1.289-.057-.787-.001-.012c-.128-1.788-.257-3.576-.372-5.365-.013-.208-.022-.417-.027-.626-.01-.377-.01-.755-.01-1.133.001-.19.001-.381 0-.57-.007-1.167-.073-1.98-1.41-.701-1.271 1.217-2.642 2.357-4.089 3.357-5.3 3.665-10.603 7.332-16.008 10.839-1.265.821-2.655 1.449-4.047 2.078l-.01.004c-.757.341-1.515.683-2.254 1.057-.114.058-.221.127-.324.205-.173.129-.334.278-.496.428l-.01.01c-.116.107-.232.214-.352.313.077.024.154.05.231.078.067.024.135.049.202.074.156.058.312.117.468.164.159.047.318.083.479.095.756.057 1.514.096 2.272.134 1.236.063 2.47.126 3.695.269.365.043.698.357 1.032.672.097.092.194.183.292.268.056.049.113.095.17.138-.138.053-.273.115-.409.176l-.045.02c-.331.151-.662.301-1.009.356-.665.104-1.336.171-2.007.238-.552.055-1.104.11-1.653.186-1.112.153-2.222.335-3.333.517l-.011.002c-2.365.387-4.726.773-7.1.89-2.594.128-5.228-.228-7.829-.58l-.722-.097c-.852-.114-1.707-.22-2.563-.326-3.337-.415-6.685-.832-9.907-1.695-8.539-2.287-17.012-4.847-25.426-7.558-4.157-1.34-8.239-2.913-12.321-4.486l-1.652-.636c-.913-.351-1.826-.7-2.74-1.046-1.899-.716-3.792-1.449-5.684-2.183-3.768-1.461-7.534-2.92-11.347-4.242-1.593-.553-3.601-.672-5.215-.236-2.974.804-3.622 4.451-.913 7.407 3.32 3.624 6.988 7.031 10.932 9.957 6.477 4.806 13.819 8.088 21.154 11.366l.011.005.229.103c.697.311 1.391.621 2.084.933 6.994 3.145 14.148 5.756 21.528 7.859 3.202.913 6.339 2.051 9.477 3.189 1.9.689 3.801 1.378 5.717 2.018 1.365.456 1.857 1.427 1.425 2.493-.261.644-1.434 1.317-2.179 1.298-.646-.017-1.294-.026-1.945-.035h-.006c-2.792-.04-5.61-.08-8.273-.719-5.745-1.377-11.405-3.121-17.06-4.864l-2.585-.795c-1.024-.314-1.993-.804-2.963-1.294-.672-.34-1.343-.679-2.035-.961-.287-.118-.658-.029-1.029.06l-.03.007c-.161.038-.32.075-.474.095.067.106.132.213.197.321.064.106.127.211.192.315.079.125.161.248.249.367.611.818 1.248 1.62 1.885 2.423 1.374 1.731 2.746 3.46 3.857 5.343 1.742 2.951 3.337 5.988 4.933 9.026.995 1.894 1.988 3.785 3.016 5.655.424.77.826 1.563 1.228 2.357l.007.014c1.162 2.296 2.332 4.605 4.034 6.393 4.612 4.843 10.939 7.278 17.094 9.272 9.341 3.025 18.096 7.187 26.767 11.641.587.301 1.169.631 1.697 1.022 1.899 1.405 1.674 2.921-.382 4.099-.55.316-1.122 1.482-.952 2.032 1.5 4.865 3.043 9.718 4.585 14.571l.116.366.004.013c1.755 5.519 3.509 11.038 5.205 16.574 2.131 6.958 4.145 13.954 6.159 20.948.624 2.17 1.248 4.334 1.874 6.497l1.296 4.469.019.066c2.11 7.27 4.219 14.539 6.242 21.831.748 2.695 1.469 5.398 2.174 8.105 1.427 4.714-4.445 8.997-6.731.849-.162-.592-.4-1.385-.64-2.184-.252-.844-.507-1.694-.677-2.32l-.007-.027c-.868-3.208-1.734-6.414-2.669-9.601-2.124-7.241-4.389-14.442-6.655-21.641-.186-.593-.35-1.214-.514-1.838-.492-1.869-.993-3.772-2.15-5.053-2.42-2.68-4.292-5.624-6.193-8.615l-.005-.007c-.256-.402-.512-.805-.77-1.209-3.826-5.979-7.774-11.88-11.723-17.782l-.013-.02c-2.65-3.962-5.299-7.921-7.911-11.904-1.126-1.718-2.095-3.537-3.065-5.358l-.007-.013c-.479-.901-.958-1.801-1.456-2.689-.112-.199-.232-.394-.356-.587-.1-.154-.201-.307-.302-.46-.108-.163-.212-.32-.313-.478-.076.185-.165.368-.254.551l-.003.006c-.193.397-.385.793-.436 1.206-.237 1.92-.446 3.844-.655 5.767l-.022.201c-.155 1.442-.311 2.884-.479 4.324-.212 1.83-.434 3.66-.655 5.489l-.059.482c-.402 3.306-.803 6.61-1.158 9.919-.092.854-.089 1.728-.087 2.599.004 1.364.007 2.722-.349 3.985-1.09 3.858.666 6.523 2.739 9.408 4.735 6.59 9.384 13.251 13.827 20.041 2.342 3.579 5.828 9.355 8.997 14.606 1.906 3.158 3.698 6.127 5.056 8.313l.061.097c1.313 2.113 2.625 4.224 3.944 6.332 0 0 .857 1.49 2.998 5.234.574 1.004.769 2.517.604 3.944z" fill="#fff"/><path clip-rule="evenodd" d="m548.034 119.025c6.864.31 13.724.97 20.55 1.785 9.344 1.116 18.168 4.139 26.797 7.819 8.948 3.817 17.248 8.735 24.898 14.695 4.248 3.309 8.47 6.754 12.166 10.648 4.776 5.031 9.176 10.447 13.441 15.928 4.868 6.257 8.465 13.33 11.772 20.495 3.718 8.052 6.576 16.421 8.504 25.122 1.429 6.454 2.8 12.892 3.187 19.505.06 1.012.126 2.023.193 3.035.134 2.035.269 4.069.342 6.106.018.496.038.992.057 1.488.107 2.708.215 5.422.049 8.116-.329 5.363-.73 10.738-1.483 16.054-.802 5.657-1.758 11.326-3.182 16.851-1.382 5.366-3.312 10.606-5.235 15.815-3.51 9.514-8.28 18.428-13.628 27.012-2.172 3.486-4.767 6.73-7.373 9.917-1.637 2.002-3.368 3.928-5.1 5.855-1.191 1.326-2.384 2.652-3.545 4.004-.39.453-.642 1.273-.547 1.855.277 1.689.595 3.372.913 5.054.479 2.531.957 5.062 1.295 7.612.254 1.924.329 3.871.404 5.819.053 1.389.107 2.779.225 4.161.262 3.056.558 6.108.853 9.167.392 4.048.783 8.094 1.098 12.146.494 6.367.974 12.748 1.063 19.128.024 1.757-.227 3.524-.478 5.288-.289 2.03-.577 4.056-.443 6.059.08 1.207.143 2.415.206 3.625.259 4.953.518 9.914 1.959 14.785.823 2.784 1.299 5.668 1.775 8.555.332 2.008.663 4.018 1.112 5.996.503 2.218 1.178 4.395 1.853 6.573.416 1.342.832 2.683 1.208 4.035.763 2.741 1.505 5.489 2.247 8.236 1.029 3.806 2.057 7.612 3.139 11.402 2.003 7.013 4.082 14.006 6.224 20.979 2.754 8.966 6.573 20.898 9.494 29.812.971 2.962 2.032 5.894 3.095 8.829.432 1.191.863 2.383 1.288 3.576 2.381 5.511-4.175 8.813-7.68 1.401-1.123-3.214-3.183-7.826-4.331-11.031-1.1-3.071-2.23-6.131-3.36-9.192-1.816-4.916-4.68-12.791-6.366-17.741-2.854-8.376-5.532-16.816-8.077-25.292-1.432-4.771-2.751-9.576-4.071-14.382-.877-3.195-1.754-6.39-2.665-9.575-2.252-7.88-4.417-15.763-4.168-24.077.011-.373-.167-.751-.346-1.129-.083-.176-.167-.352-.231-.527-.074.091-.15.182-.228.271l-.124.144c-.264.303-.527.606-.73.946-.212.357-.394.742-.575 1.126-.335.706-.666 1.407-1.184 1.929-.623.629-2.047 1.277-2.611.975-1.044-.56-2.373-1.442-1.974-3.102.098-.407.246-.803.392-1.198.151-.404.301-.807.399-1.223.256-1.088.516-2.175.776-3.263l.003-.012c.844-3.532 1.689-7.065 2.395-10.625.807-4.064 1.596-8.164 1.905-12.285.229-3.057.111-6.144-.007-9.226-.034-.904-.069-1.804-.094-2.704-.036-1.249-.07-2.499-.104-3.748-.161-5.896-.321-11.791-.654-17.676-.148-2.615-.484-5.219-.834-7.934-.195-1.513-.394-3.058-.568-4.659-.031-.43-.061-.859-.092-1.289l-.057-.787-.001-.012c-.128-1.788-.257-3.576-.372-5.365-.038-.585-.037-1.172-.037-1.759.001-.19.001-.381 0-.57-.007-1.167-.073-1.98-1.41-.701-1.271 1.217-2.642 2.357-4.089 3.357-5.3 3.665-10.603 7.332-16.008 10.839-1.268.823-2.662 1.452-4.057 2.082-.757.341-1.515.683-2.254 1.057-.303.153-.561.393-.82.633-.119.11-.239.221-.362.323.077.024.154.05.231.078.067.024.135.049.202.074.313.117.627.235.947.259.756.057 1.514.096 2.272.134 1.236.063 2.47.126 3.695.269.365.043.698.357 1.032.672.153.144.305.288.462.406-.153.059-.303.128-.454.196-.331.151-.662.301-1.009.356-.665.104-1.336.171-2.007.238-.552.055-1.104.11-1.653.186-1.112.153-2.222.335-3.333.517-2.368.387-4.733.774-7.111.892-2.594.128-5.228-.228-7.829-.58-.241-.032-.482-.065-.722-.097-.852-.114-1.707-.22-2.563-.326-3.337-.415-6.685-.832-9.907-1.695-8.539-2.287-17.012-4.847-25.426-7.558-4.157-1.34-8.239-2.913-12.321-4.486-1.463-.564-2.926-1.128-4.392-1.682-1.899-.716-3.792-1.449-5.684-2.183-3.768-1.461-7.534-2.92-11.347-4.242-1.593-.553-3.601-.672-5.215-.236-2.974.804-3.622 4.451-.913 7.407 3.32 3.624 6.988 7.031 10.932 9.957 6.48 4.808 13.827 8.091 21.165 11.371.774.346 1.544.69 2.313 1.036 6.993 3.145 14.148 5.756 21.528 7.859 3.202.913 6.339 2.051 9.477 3.189 1.9.689 3.801 1.378 5.717 2.018 1.365.456 1.857 1.427 1.425 2.493-.261.644-1.434 1.317-2.179 1.298-.646-.017-1.294-.026-1.945-.035-2.794-.04-5.614-.08-8.279-.719-5.753-1.379-11.42-3.126-17.082-4.871-.855-.263-1.709-.526-2.563-.788-1.024-.314-1.993-.804-2.963-1.294-.672-.34-1.343-.679-2.035-.961-.287-.118-.658-.029-1.029.06-.171.04-.341.081-.504.102.067.106.132.213.197.321.14.233.28.465.441.682.611.818 1.248 1.62 1.885 2.423 1.374 1.731 2.746 3.46 3.857 5.343 1.742 2.951 3.337 5.988 4.933 9.026.995 1.894 1.988 3.785 3.016 5.655.426.774.83 1.572 1.235 2.371 1.162 2.296 2.332 4.605 4.034 6.393 4.612 4.843 10.939 7.278 17.094 9.272 9.341 3.025 18.096 7.187 26.767 11.641.587.301 1.169.631 1.697 1.022 1.899 1.405 1.674 2.921-.382 4.099-.55.316-1.122 1.482-.952 2.032 1.538 4.987 3.12 9.962 4.701 14.937l.004.013c1.755 5.519 3.509 11.038 5.205 16.574 2.131 6.958 4.145 13.954 6.159 20.948.624 2.17 1.248 4.334 1.874 6.497.432 1.49.864 2.979 1.296 4.469 2.116 7.292 4.232 14.583 6.261 21.897.748 2.695 1.469 5.398 2.174 8.105 1.427 4.714-4.445 8.997-6.731.849-.334-1.218-.987-3.285-1.317-4.504-.87-3.217-1.739-6.432-2.676-9.628-2.124-7.241-4.389-14.442-6.655-21.641-.186-.593-.35-1.214-.514-1.838-.492-1.869-.993-3.772-2.15-5.053-2.422-2.682-4.295-5.629-6.198-8.622-.256-.402-.512-.805-.77-1.209-3.826-5.979-7.774-11.88-11.723-17.782-2.655-3.969-5.308-7.935-7.924-11.924-1.129-1.722-2.1-3.546-3.072-5.371-.479-.901-.958-1.801-1.456-2.689-.202-.359-.43-.703-.658-1.047-.108-.163-.212-.32-.313-.478-.076.185-.165.368-.254.551-.194.399-.388.797-.439 1.212-.246 1.987-.461 3.978-.677 5.968-.155 1.442-.311 2.884-.479 4.324-.231 1.991-.473 3.981-.714 5.971-.402 3.306-.803 6.61-1.158 9.919-.092.854-.089 1.728-.087 2.599.004 1.364.007 2.722-.349 3.985-1.09 3.858.666 6.523 2.739 9.408 4.735 6.59 9.384 13.251 13.827 20.041 3.75 5.732 10.436 17.1 14.053 22.919 1.333 2.145 2.665 4.289 4.005 6.429 0 0 .857 1.49 2.998 5.234 2.142 3.745-.989 14.598-8.465 1.534-1.205-1.873-4.984-7.354-6.192-9.225-3.05-4.727-9.168-15.002-12.184-19.75-2.835-4.464-5.563-8.996-8.291-13.528l-.894-1.486c-.263-.436-.45-.917-.636-1.399-.194-.498-.387-.995-.663-1.441-.154-.249-.531-.361-.907-.472-.172-.051-.343-.101-.493-.165.019.124.045.248.07.372.055.268.11.535.105.801-.048 2.318-.109 4.635-.17 6.954l-.068 2.64c-.013.489-.027.978-.02 1.466.025 1.857.03 3.716.036 5.574.012 4.314.082 13.324.34 17.623.152 2.529.27 5.233.577 11.919.306 6.687-10.094 6.891-10.306-.92-.092-1.036-.328-5.498-.417-6.534l-.005-.057c-.221-2.571-.395-9.845-.512-12.424-.044-.966-.088-1.93-.137-2.894-.06-1.158-.128-2.315-.197-3.474-.17-2.877-.34-5.755-.368-8.633-.059-5.945-.024-11.897.175-17.838.201-5.98.475-11.967 1.035-17.921.701-7.461 1.547-14.919 2.667-22.327.912-6.03 2.061-12.055 3.634-17.94.613-2.291-.04-2.569-1.7-3.277l-.147-.062c-5.804-2.482-11.459-5.3-16.189-9.612-2.649-2.415-4.251-5.492-5.763-8.63l-.431-.898c-.276-.575-.551-1.151-.832-1.723-2.625-5.338-5.276-10.667-8.067-15.92-2.923-5.501-5.989-10.928-9.082-16.335-.5-.874-1.363-1.65-2.235-2.182-1.748-1.067-3.52-2.095-5.293-3.123-2.628-1.525-5.256-3.049-7.803-4.699-5.725-3.708-10.814-8.226-14.152-14.242-1.898-3.421-2.432-7.519-.388-11.02 1.887-3.23 5.018-5.136 9.095-5.271 2.971-.099 5.592.861 8.247 1.833l.462.17c2.545.928 5.082 1.879 7.619 2.831 5.289 1.984 10.577 3.967 15.936 5.739 8.827 2.918 17.752 5.564 26.71 8.059 6.309 1.757 12.715 3.181 19.113 4.603l1.078.239c1.026.228 2.392-.06 3.32-.595 3.032-1.751 5.974-3.668 8.878-5.629 1.687-1.139 3.391-2.259 5.095-3.379 4.641-3.049 9.284-6.099 13.595-9.561 5.257-4.221 10.108-9.055 14.6-14.098 7.062-7.929 13.021-16.711 18.156-26.03 4.152-7.535 7.289-15.486 9.843-23.685 1.951-6.26 3.683-12.567 4.39-19.111.153-1.42.325-2.838.498-4.256.393-3.225.786-6.451.948-9.688l.036-.704c.277-5.493.557-11.032.111-16.49-.968-11.855-3.299-23.464-7.567-34.648-3.213-8.42-7.166-16.42-11.964-24.058-5.295-8.429-11.546-16.032-18.813-22.781-6.348-5.896-13.26-11.067-20.893-15.233-6.915-3.774-14.047-7.055-21.685-9.031-4.867-1.259-9.801-2.353-14.769-3.1-4.514-.679-9.109-.936-13.678-1.104-4.113-.151-8.281-.281-12.351.198-10.234 1.203-20.198 3.501-29.827 7.402-8.262 3.348-16.081 7.42-23.443 12.371-8.863 5.962-16.658 13.211-23.655 21.229-6.701 7.678-12.366 16.121-17.117 25.185-4.423 8.441-7.978 17.223-10.457 26.384-1.659 6.135-2.788 12.441-3.736 18.733-.721 4.789-.963 9.673-1.092 14.524-.14 5.245-.24 10.531.244 15.743.914 9.845 2.706 19.574 6.104 28.896 2.167 5.942 4.537 11.837 7.25 17.547 3.128 6.584 7.17 12.668 11.658 18.421 2.015 2.584 4.141 5.1 6.404 7.467 2.87 3 5.866 5.89 8.925 8.699 5.43 4.987 11.522 9.075 17.863 12.802.243.143.488.282.732.421l.455.26c1.584.914 3.078 1.897 3.853 3.863.722 1.834.175 3.319-.64 4.707-1.405 2.391-2.888 4.735-4.372 7.08-.824 1.301-1.646 2.6-2.454 3.907-.172.278-.35.555-.528.834-.681 1.065-1.367 2.137-1.783 3.299-.332.927-.48 1.917-.63 2.909-.099.663-.199 1.326-.353 1.973-.045.187-.089.393-.134.605-.209.989-.452 2.136-1.005 2.355-1.351.537-3.137.395-4.07-1.094-1.213-1.937-2.239-4-3.227-6.065-.237-.495-.237-1.358.046-1.803 1.113-1.749.243-1.859-.791-1.824l-.201.009-.102.004c-.106.005-.212.01-.316.013-2.114.069-4.227.149-6.341.228l-.018.001c-4.882.184-9.764.368-14.648.422-1.078.012-2.158-.238-3.238-.488-1.019-.237-2.04-.473-3.062-.49-2.099-.034-4.224.369-6.31.765l-.285.054c-.729.138-1.466.262-2.21.387-2.432.408-4.878.819-7.096 1.751-4.027 1.692-7.847 3.947-11.588 6.236-6.469 3.957-12.023 9.027-17.188 14.572-3.339 3.583-6.728 7.12-10.118 10.658-3.424 3.573-6.849 7.146-10.221 10.768-4.491 4.824-8.897 9.739-13.117 14.8-2.38 2.854-4.649 5.802-6.919 8.752-1.671 2.17-3.342 4.341-5.058 6.475-1.607 1.998-3.281 3.943-4.958 5.889-1.247 1.448-2.494 2.896-3.713 4.366-2.098 2.531-4.172 5.081-6.247 7.632-1.552 1.909-3.105 3.818-4.667 5.718-1.272 1.547-1.229 1.492-2.517 3.033-1.971 2.357-3.942 4.714-5.866 7.109-4.779 5.946-8.073 10.063-12.797 16.057l-.886 1.124c-2.648 3.361-3.652 4.482-6.259 7.875-.968 1.26-1.943 2.516-2.919 3.772-.492.633-1.229 1.584-2.21 2.853-2.572 3.359-3.537 4.514-4.769 6.233-1.835 2.561-3.828 4.499-5.477 7.191-6.13 9.321-11.089.696-8.178-2.862 2.91-3.557 2.543-3.159 5.019-6.342 2.209-2.839 3.37-4.383 5.467-7.31 1.355-1.893 2.711-3.785 4.098-5.655 1.715-2.313 1.862-2.328 3.617-4.612 1.094-1.425 2.189-2.849 3.274-4.281.951-1.255 1.893-2.519 2.836-3.784 1.404-1.883 2.804-3.762 4.238-5.616 1.584-2.049 1.774-2.196 3.394-4.219.894-1.118 1.789-2.235 2.677-3.357 1.576-1.99 3.148-3.983 4.719-5.976 3.278-4.158 5.228-6.723 8.546-10.849 1.4-1.74 2.853-3.438 4.306-5.136 1.322-1.544 2.643-3.087 3.923-4.662 2.519-3.097 5.01-6.216 7.502-9.335 2.067-2.588 4.132-5.172 6.213-7.745.906-1.121 1.806-2.248 2.707-3.374 2.779-3.478 5.556-6.954 8.516-10.266 3.534-3.955 7.132-7.852 10.732-11.751 5.063-5.483 10.126-10.966 15.007-16.607 8.07-9.328 17.264-17.136 27.78-23.561 4.854-2.966 10.055-4.539 15.488-5.624l.277-.055c3.086-.617 6.22-1.243 9.344-1.315 5.917-.136 11.84-.064 17.767.007 1.507.019 3.014.037 4.52.052 1.34.013 2.679.071 4.018.129 1.57.068 3.141.136 4.711.131 1.802-.005 3.621-.197 5.396-.508.473-.083.898-.431 1.324-.779.194-.158.387-.316.586-.45-.154-.135-.304-.278-.454-.42-.321-.306-.643-.612-1.008-.852-7.698-5.046-15.135-10.375-21.764-16.855-7.352-7.187-13.867-14.988-19.308-23.689-4.871-7.79-9.164-15.917-12.107-24.617-2.465-7.285-4.438-14.753-6.283-22.226-.814-3.299-1.098-6.745-1.379-10.167-.032-.38-.063-.759-.095-1.138-.092-1.095-.192-2.192-.292-3.289-.416-4.576-.833-9.156-.718-13.716.104-4.11.554-8.21 1.004-12.31.263-2.394.526-4.789.72-7.186.663-8.193 2.826-16.082 5.301-23.82 2.704-8.453 5.872-16.794 10.498-24.471.885-1.468 1.728-2.965 2.57-4.461 1.46-2.593 2.92-5.185 4.597-7.628 3.218-4.688 6.725-9.196 10.356-13.575 2.945-3.552 6.105-6.959 9.44-10.147 6.455-6.169 13.501-11.609 21.034-16.437 7.984-5.116 16.466-9.208 25.372-12.355 4.956-1.751 10.087-3.079 15.221-4.232 3.622-.813 7.33-1.265 11.029-1.716l1.582-.194c.711-.088 1.423-.184 2.136-.28 2.909-.392 5.833-.786 8.724-.656zm-97.959 306.438c.024.072.057.151.092.233l.1.224c.101.232.184.446.115.52-2.749 2.974-5.132 6.247-7.514 9.52l-1.05 1.44c-2.806 3.835-5.686 7.61-9.234 10.839-1.185 1.078-2.362 2.166-3.539 3.253-2.526 2.334-5.052 4.668-7.656 6.912-2.417 2.083-5.111 6.327-5.561 9.391-.342 2.324-.741 4.64-1.14 6.956-.405 2.356-.81 4.712-1.156 7.077-.227 1.548-.346 3.11-.466 4.674-.089 1.154-.177 2.308-.309 3.456-.296 2.593-.658 5.179-1.02 7.765l-.2 1.438c-.149 1.069-.31 2.135-.47 3.202-.21 1.39-.419 2.776-.601 4.165-.534 4.079-1.05 8.16-1.523 12.246-.413 3.569-1.591 12.587-1.923 16.164-.445 4.784-.854 9.57-1.263 14.357-.363 4.219-.515 6.485-.903 11.579-.388 5.095-9.689 5.848-8.714-5.149.856-9.644.944-12.236 1.871-21.876.52-5.399 1.885-16.238 2.449-21.633l.211-2.026c.12-1.149.237-2.299.353-3.449.354-3.502.708-7 1.167-10.484.541-4.106 1.152-8.203 1.762-12.3.309-2.071.618-4.142.918-6.214.044-.307.043-.619.042-.932l.001-.288.002-.148c-.141.088-.293.166-.445.243-.329.169-.659.338-.873.6-.813.998-1.604 2.014-2.395 3.03-.966 1.241-1.93 2.479-2.933 3.683-1.18 1.416-2.389 2.808-3.598 4.199-1.82 2.095-3.64 4.189-5.356 6.365-5.334 6.76-10.575 13.596-15.75 20.478-.527.701-1.055 1.401-1.583 2.102l-.032.042c-4.247 5.639-8.497 11.282-12.469 17.112-3.331 4.889-8.264 12.187-11.504 17.138-6.568 10.883-11.875 2.431-10.241-1.563 1.633-3.995 4.204-6.631 6.158-9.388 3.828-6.226 7.651-12.445 11.631-18.562 4.058-6.238 8.432-12.28 12.841-18.279 4.139-5.63 8.436-11.149 12.802-16.606 1.882-2.352 3.864-4.623 5.845-6.894 1.196-1.37 2.39-2.738 3.562-4.124 1.452-1.718 2.882-3.457 4.312-5.195 2.896-3.522 5.789-7.04 8.871-10.384 3.164-3.434 6.79-6.472 10.4-9.455 2.965-2.449 6.095-4.704 9.22-6.955.469-.338.937-.675 1.405-1.013 7.796-5.633 15.623-11.224 23.46-16.801.35-.249.789-.374 1.228-.498.204-.058.408-.116.603-.187zm128.599 23.846c.322.533.641 1.068.959 1.602.691 1.162 1.383 2.324 2.11 3.462 4.727 7.406 9.472 14.8 14.226 22.188.152.236.375.427.597.619.103.089.207.178.303.271.024-.152.065-.309.106-.466.09-.343.179-.686.09-.973-.222-.715-.494-1.415-.767-2.114-.273-.701-.546-1.401-.768-2.116-.647-2.087-1.281-4.179-1.915-6.27-1.135-3.75-2.27-7.494-3.482-11.212-.341-1.048-1.21-2.365-2.142-2.698-2.958-1.055-6.061-1.702-9.317-2.293zm-42.351-119.14c5.049 2.356 7.82 6.536 10.416 10.88l.456.768c.076.128.152.256.228.384.331.56.663 1.119.999 1.676 2.058 3.408 4.283 6.77 6.86 9.787.917 1.074 2.305 1.75 3.688 2.424.572.279 1.143.558 1.679.864 2.341 1.335 4.695 2.649 7.063 3.935.39.211.802.38 1.215.549.373.153.747.306 1.103.491.187.096.324.288.461.48.062.088.125.175.192.254-.07.055-.141.126-.212.197-.153.153-.305.305-.451.3-1.376-.053-2.76-.067-4.144-.08-3.472-.034-6.945-.067-10.297-.721-3.276-.639-6.181-2.958-8.339-5.866-3.642-4.909-7.369-9.758-11.118-14.587-2.266-2.917-5.583-3.704-8.941-4.26l-.672-.109c-1.273-.202-2.559-.336-3.844-.471-1.871-.195-3.741-.39-5.567-.795-1.176-.26-2.54-1.49-2.999-2.613-.377-.926.08-2.747.838-3.456 1.299-1.216 3.034-2.38 4.74-2.673 5.717-.984 11.168.427 16.646 2.642zm56.974-55.364c2.5.018 3.218.604 3.299 3.26.045 1.473.115 2.95.184 4.427.211 4.472.421 8.952-.041 13.355-.844 8.039-.894 16.042-.82 24.083.039 4.346-.02 8.7-.263 13.037-.157 2.8-.624 5.591-1.088 8.365l-.04.236c-.601 3.59-3.475 5.12-7.075 4.917-7.901-.447-14.012-4.493-20.049-8.704l-.842-.588c-.955-.667-1.909-1.334-2.871-1.987-2.089-1.421-4.058-3.085-5.823-4.89-.803-.822-1.501-2.34-1.337-3.402.477-3.095 3.474-4.183 6.064-2.3 1.656 1.204 3.272 2.464 4.888 3.723 1.755 1.368 3.509 2.736 5.315 4.032 3.862 2.773 8.032 5.033 12.606 6.418 2.104.637 3.057-.149 3.139-2.305.067-1.771.138-3.542.209-5.314v-.011c.145-3.62.289-7.241.405-10.862.077-2.43.131-4.86.185-7.291.097-4.381.194-8.759.429-13.131.185-3.438.562-6.866.94-10.294.173-1.569.346-3.138.5-4.708.076-.772.144-1.545.212-2.318.158-1.801.316-3.601.576-5.387.081-.563.441-1.086.828-1.648.158-.23.32-.465.47-.713zm-77.865 46.38c.383-.007.771.293 1.159.592.18.139.359.277.538.385-.169.071-.338.157-.507.243-.365.187-.729.373-1.105.4-3.603.252-7.902 4.775-7.996 8.506-.065 2.596-.045 5.18 1.377 7.717-.52 2.51-2.619 2.915-4.762.984-3.924-3.536-4.384-12.969.507-15.723 3.343-1.883 6.932-3.033 10.789-3.104z" fill="#1e64e6" fill-rule="evenodd"/></svg>